<svg width="539" height="519" viewBox="0 0 539 519" fill="none" xmlns="http://www.w3.org/2000/svg">
<g clip-path="url(#clip0_201_20)">
<path d="M491.731 496.518C491.155 496.544 490.585 496.393 490.097 496.086C489.61 495.779 489.23 495.33 489.007 494.8C488.785 494.271 488.731 493.685 488.854 493.124C488.976 492.563 489.269 492.053 489.693 491.663L489.885 490.9C489.86 490.839 489.835 490.778 489.809 490.717C489.229 489.352 488.256 488.189 487.014 487.372C485.771 486.556 484.314 486.123 482.826 486.129C481.337 486.134 479.883 486.577 478.647 487.403C477.411 488.229 476.447 489.4 475.877 490.769C473.598 496.234 470.697 501.708 469.983 507.486C469.668 510.04 469.801 512.63 470.375 515.139C465.023 503.513 462.244 490.878 462.226 478.089C462.225 474.88 462.404 471.673 462.762 468.484C463.059 465.869 463.47 463.273 463.995 460.696C466.864 446.712 473.023 433.605 481.966 422.451C486.294 420.099 489.795 416.482 491.996 412.088C492.793 410.509 493.357 408.823 493.669 407.083C493.181 407.146 491.828 399.741 492.196 399.287C491.516 398.259 490.298 397.748 489.554 396.744C485.858 391.754 480.766 392.625 478.108 399.407C472.429 402.261 472.374 406.994 475.858 411.546C478.075 414.443 478.38 418.362 480.325 421.462C480.125 421.717 479.917 421.965 479.717 422.22C476.058 426.904 472.87 431.934 470.197 437.237C470.847 431.296 470.071 425.286 467.933 419.701C465.767 414.496 461.706 410.113 458.13 405.613C453.834 400.209 445.026 402.567 444.269 409.418C444.261 409.485 444.254 409.551 444.247 409.617C444.779 409.916 445.298 410.232 445.807 410.568C446.446 410.993 446.942 411.6 447.228 412.311C447.514 413.021 447.579 413.801 447.413 414.548C447.246 415.295 446.857 415.975 446.296 416.499C445.735 417.022 445.029 417.364 444.269 417.481L444.191 417.493C444.381 419.399 444.715 421.289 445.192 423.144C440.604 440.812 450.509 447.247 464.652 447.536C464.964 447.695 465.268 447.855 465.58 448.006C462.895 455.584 461.21 463.478 460.569 471.489C460.206 476.215 460.228 480.963 460.633 485.685L460.609 485.518C459.584 480.266 456.771 475.528 452.644 472.103C446.515 467.089 437.855 465.243 431.243 461.212C430.54 460.763 429.723 460.523 428.888 460.521C428.053 460.519 427.234 460.755 426.53 461.201C425.825 461.647 425.262 462.284 424.909 463.038C424.556 463.791 424.427 464.63 424.536 465.454C424.545 465.513 424.554 465.572 424.564 465.63C425.549 466.03 426.509 466.491 427.437 467.009C427.968 467.308 428.488 467.624 428.997 467.959C429.636 468.385 430.131 468.992 430.418 469.702C430.704 470.413 430.769 471.192 430.602 471.94C430.436 472.687 430.047 473.367 429.486 473.89C428.925 474.414 428.219 474.756 427.459 474.873L427.381 474.885C427.325 474.893 427.277 474.901 427.221 474.909C428.905 478.913 431.269 482.599 434.209 485.805C437.078 501.228 449.399 502.691 462.578 498.2H462.586C464.032 504.457 466.128 510.548 468.838 516.374H491.171C491.252 516.127 491.324 515.872 491.396 515.625C489.328 515.754 487.253 515.631 485.216 515.258C486.873 513.233 488.53 511.193 490.187 509.168C490.224 509.13 490.259 509.09 490.291 509.049C491.131 508.012 491.98 506.984 492.82 505.948L492.821 505.947C492.866 502.77 492.5 499.601 491.732 496.518L491.731 496.518Z" fill="#6AE468"/>
<path d="M454.518 298.759C460.436 277.358 471.478 259.131 489.304 245.11C490.009 244.024 491.118 243.262 492.387 242.99C493.656 242.718 494.981 242.958 496.073 243.658L536.761 269.819C537.851 270.521 538.616 271.626 538.889 272.889C539.163 274.153 538.921 275.473 538.218 276.559L503.432 330.208C502.727 331.294 501.618 332.056 500.349 332.328C499.08 332.6 497.755 332.36 496.663 331.66L455.975 305.499C454.885 304.797 454.12 303.692 453.847 302.429C453.573 301.165 453.815 299.845 454.518 298.759Z" fill="#F2F2F2"/>
<path d="M468.146 284.561C469.671 273.254 479.064 261.695 490.51 250.071C491.17 249.054 492.208 248.341 493.397 248.086C494.585 247.831 495.827 248.056 496.849 248.711L531.817 271.194C532.837 271.852 533.554 272.886 533.81 274.07C534.066 275.253 533.84 276.489 533.182 277.507L502.227 325.247C501.566 326.264 500.528 326.977 499.339 327.232C498.151 327.487 496.909 327.262 495.887 326.606L474.225 312.679C469.68 309.749 466.487 305.143 465.347 299.872C464.207 294.6 465.214 289.094 468.146 284.561Z" fill="white"/>
<path d="M471.266 330.664C466.103 309.07 466.964 287.802 475.805 266.964C475.898 265.675 476.501 264.475 477.482 263.628C478.462 262.781 479.74 262.356 481.035 262.446L529.347 265.86C530.641 265.953 531.846 266.553 532.697 267.529C533.547 268.506 533.974 269.778 533.884 271.068L529.344 334.768C529.251 336.057 528.648 337.257 527.668 338.104C526.687 338.951 525.409 339.376 524.114 339.286L475.803 335.872C474.508 335.779 473.304 335.179 472.453 334.203C471.602 333.226 471.176 331.954 471.266 330.664Z" fill="#F2F2F2"/>
<path d="M476.343 311.686C472.211 301.045 474.853 286.41 479.261 270.734C479.348 269.526 479.913 268.403 480.831 267.609C481.75 266.816 482.946 266.418 484.159 266.502L525.679 269.436C526.891 269.523 528.019 270.086 528.816 271C529.613 271.914 530.012 273.106 529.928 274.314L525.889 330.998C525.801 332.206 525.236 333.329 524.318 334.122C523.4 334.916 522.203 335.314 520.99 335.229L495.27 333.412C489.869 333.024 484.843 330.519 481.295 326.446C477.747 322.373 475.966 317.065 476.343 311.686Z" fill="white"/>
<path d="M475.431 197.359L454.735 121.075C453.848 117.846 451.722 115.093 448.815 113.411C445.909 111.729 442.454 111.252 439.198 112.084C437.513 112.514 435.934 113.282 434.557 114.339C433.18 115.397 432.033 116.723 431.188 118.236C430.342 119.75 429.815 121.419 429.638 123.141C429.461 124.864 429.638 126.605 430.159 128.257L454.098 206.841L466.622 255.201C464.798 256.588 463.447 258.501 462.752 260.679C462.058 262.857 462.054 265.196 462.74 267.377C463.426 269.557 464.771 271.475 466.59 272.868C468.408 274.262 470.614 275.064 472.907 275.166C475.2 275.268 477.469 274.665 479.405 273.438C481.341 272.211 482.852 270.421 483.73 268.309C484.609 266.198 484.814 263.869 484.317 261.637C483.82 259.406 482.645 257.381 480.953 255.838L475.431 197.359Z" fill="#FFB6B6"/>
<path d="M326.167 210.555L347.392 134.416C348.282 131.188 347.861 127.74 346.221 124.818C344.581 121.896 341.852 119.733 338.625 118.796C336.955 118.312 335.204 118.171 333.478 118.382C331.751 118.593 330.086 119.153 328.584 120.026C327.082 120.899 325.775 122.067 324.741 123.46C323.707 124.853 322.969 126.44 322.571 128.126L302.959 207.889L288.99 255.856C286.71 256.124 284.569 257.084 282.857 258.606C281.145 260.128 279.944 262.138 279.419 264.362C278.894 266.587 279.069 268.919 279.921 271.041C280.773 273.163 282.261 274.973 284.181 276.224C286.102 277.475 288.363 278.107 290.657 278.034C292.951 277.961 295.167 277.186 297.003 275.815C298.84 274.445 300.208 272.544 300.922 270.372C301.636 268.2 301.661 265.862 300.994 263.675L326.167 210.555Z" fill="#FFB6B6"/>
<path d="M447.628 503.028L434.103 503.027L427.669 451.079L447.63 451.08L447.628 503.028Z" fill="#FFB6B6"/>
<path d="M448.104 517.078L406.513 517.076V516.552C406.513 512.277 408.219 508.177 411.255 505.154C414.291 502.131 418.408 500.433 422.702 500.432H422.703L430.3 494.693L444.474 500.433L448.105 500.433L448.104 517.078Z" fill="#2F2E41"/>
<path d="M352.449 503.163L339.134 500.798L341.957 448.531L361.609 452.021L352.449 503.163Z" fill="#FFB6B6"/>
<path d="M350.442 517.078L309.497 509.806L309.589 509.291C310.343 505.082 312.745 501.344 316.266 498.898C319.788 496.453 324.141 495.501 328.367 496.251L328.368 496.251L336.859 491.929L349.802 500.057L353.376 500.692L350.442 517.078Z" fill="#2F2E41"/>
<path d="M353.768 264.178C353.768 264.178 341.163 281.956 341.677 287.922C342.191 293.888 346.642 289.129 342.191 293.888C337.739 298.648 335.145 295.455 337.333 301.335C339.52 307.215 340.41 303.407 339.52 307.215C338.63 311.022 340.41 456.66 340.41 456.66H363.589C363.589 456.66 376.661 372.213 375.006 368.27C373.351 364.327 373.389 366.044 375.151 361.854C376.912 357.664 378.57 352.68 378.57 352.68L396.892 301.335L411.024 373.628L427.66 459.533H449.872C449.872 459.533 453.676 333.208 455.357 331.634C457.039 330.06 455.027 326.522 452.917 324.483C450.807 322.445 451.228 320.375 451.908 316.174C452.588 311.974 455.456 309.631 455.357 306.995C455.259 304.359 461.491 262.476 451.697 255.813C441.904 249.15 353.768 264.178 353.768 264.178Z" fill="#2F2E41"/>
<path d="M431.27 87.0897L405.342 80.3994L393.24 63.7771L364.497 67.2956L358.379 89.9686L337.916 101.796C374.597 102.015 354.843 207.834 360.235 214.662C364.622 220.218 338.336 233.435 346.574 241.867C354.813 250.298 351.767 246.924 349.855 256.104C347.943 265.283 334.009 274.998 349.855 274.902C365.702 274.805 461.322 273.445 458.59 262.563C455.858 251.681 455.901 254.444 451.782 247.621C447.662 240.799 444.89 244.611 446.276 234.543C447.662 224.476 443.16 216.689 446.296 212.233C451.111 205.395 446.259 156.031 441.719 157.349L431.27 87.0897Z" fill="#68C6E4"/>
<path d="M423.867 87.4426C423.867 87.4426 442.833 79.4192 449.663 94.382C451.845 99.161 453.681 111.165 455.451 108.503C457.221 105.841 455.513 111.677 456.609 111.684C457.587 111.69 459.091 110.115 457.954 115.542C457.598 117.321 457.701 119.162 458.252 120.892C458.803 122.622 459.786 124.185 461.107 125.434L428.144 145.093L423.867 87.4426Z" fill="#68C6E4"/>
<path d="M352.608 101.045C352.608 101.045 333.642 93.0217 326.812 107.985C324.891 112.193 325.369 121.543 321.629 120.493C317.888 119.444 320.544 123.399 320.05 124.773C319.5 126.304 321.901 130.638 318.529 129.122C315.156 127.605 315.368 139.037 315.368 139.037L348.331 158.696L352.608 101.045Z" fill="#68C6E4"/>
<path d="M361.6 78.6359L356.136 88.1577C356.136 88.1577 341.11 96.3192 341.11 97.6795C341.11 99.0397 343.842 110.147 341.11 118.876C338.378 127.605 346.325 144.022 347.94 157.531C354.77 214.662 334.459 235.42 330.182 271.792L373.529 284.399C373.529 284.399 380.725 188.817 380.725 167.053C380.725 145.288 361.6 78.6359 361.6 78.6359Z" fill="#2F2E41"/>
<path d="M401.215 74.5551L412.382 80.8797C412.382 80.8797 426.995 84.088 427.169 85.4372C427.344 86.7863 427.396 101.125 431.225 109.435C435.055 117.745 433.999 122.164 444.313 146.731C449.582 159.283 461.679 259.709 461.679 259.709L420.304 277.726C420.304 277.726 400.907 183.842 398.115 162.256C395.323 140.67 401.215 74.5551 401.215 74.5551Z" fill="#2F2E41"/>
<path d="M373.293 61.5863C388.893 61.5863 401.539 48.9937 401.539 33.4601C401.539 17.9265 388.893 5.33395 373.293 5.33395C357.694 5.33395 345.048 17.9265 345.048 33.4601C345.048 48.9937 357.694 61.5863 373.293 61.5863Z" fill="#FFB6B6"/>
<path d="M391.882 55.313C385.205 50.1162 394.332 27.2548 383.307 32.1345C383.307 32.1345 369.831 23.5951 367.123 29.2067C363.988 35.7044 352.839 32.7567 345.991 30.4632C346.529 29.2174 346.911 27.9104 347.13 26.5717C345.866 27.5635 344.526 28.4567 343.124 29.2433C342.183 28.7429 341.351 28.0631 340.674 27.2426C340.006 26.4808 339.588 25.5336 339.476 24.5283C339.364 23.5229 339.564 22.5077 340.049 21.6188C341.188 19.8743 343.54 19.3376 344.925 17.7882C345.085 17.5704 345.189 17.3171 345.229 17.0502C345.269 16.7833 345.244 16.5106 345.155 16.2557C344.99 15.6324 344.965 14.9805 345.082 14.3465C345.199 13.7124 345.455 13.1119 345.831 12.5876C346.208 12.0633 346.696 11.6282 347.261 11.3133C347.826 10.9984 348.453 10.8114 349.099 10.7656C349.359 10.7735 349.617 10.7176 349.85 10.6029C351.012 9.89456 352.085 9.05094 353.047 8.08985C351.442 8.16304 353.405 -1.61927 369.316 0.233542C373.322 0.0871647 375.414 4.48666 379.359 5.18203C388.921 -0.258998 397.456 7.58972 401.609 15.0922C405.762 22.5947 410.258 46.7736 391.882 55.313Z" fill="#2F2E41"/>
<path d="M271.362 14.964H18.173C13.3562 14.968 8.73763 16.8745 5.33069 20.2652C1.92375 23.6559 0.00666567 28.2539 0 33.0504V260.233C0.00626372 265.031 1.92291 269.63 5.32965 273.023C8.73639 276.415 13.3551 278.324 18.173 278.33H271.362C276.179 278.323 280.797 276.414 284.202 273.022C287.607 269.629 289.521 265.03 289.525 260.233V33.0504C289.521 28.2549 287.606 23.6571 284.201 20.2662C280.795 16.8753 276.178 14.9683 271.362 14.964Z" fill="white"/>
<path d="M155.677 67.1061H128.628C127.299 67.1061 126.025 66.5806 125.086 65.6452C124.146 64.7097 123.619 63.441 123.619 62.1181C123.619 60.7952 124.146 59.5265 125.086 58.5911C126.025 57.6557 127.299 57.1302 128.628 57.1302H155.677C157.005 57.1302 158.279 57.6557 159.219 58.5911C160.158 59.5265 160.686 60.7952 160.686 62.1181C160.686 63.441 160.158 64.7097 159.219 65.6452C158.279 66.5806 157.005 67.1061 155.677 67.1061Z" fill="#68C6E4"/>
<path d="M514.328 296.286H487.279C485.95 296.286 484.676 295.761 483.737 294.826C482.797 293.89 482.27 292.621 482.27 291.299C482.27 289.976 482.797 288.707 483.737 287.771C484.676 286.836 485.95 286.311 487.279 286.311H514.328C515.656 286.311 516.93 286.836 517.87 287.771C518.809 288.707 519.337 289.976 519.337 291.299C519.337 292.621 518.809 293.89 517.87 294.826C516.93 295.761 515.656 296.286 514.328 296.286Z" fill="#68C6E4"/>
<path d="M225.804 171.587H58.5003C57.1718 171.587 55.8977 171.061 54.9583 170.126C54.0189 169.19 53.4912 167.922 53.4912 166.599C53.4912 165.276 54.0189 164.007 54.9583 163.072C55.8977 162.136 57.1718 161.611 58.5003 161.611H225.804C227.132 161.611 228.407 162.136 229.346 163.072C230.285 164.007 230.813 165.276 230.813 166.599C230.813 167.922 230.285 169.19 229.346 170.126C228.407 171.061 227.132 171.587 225.804 171.587Z" fill="#E6E6E6"/>
<path d="M225.804 204.508H58.5003C57.1718 204.508 55.8977 203.982 54.9583 203.047C54.0189 202.111 53.4912 200.842 53.4912 199.52C53.4912 198.197 54.0189 196.928 54.9583 195.992C55.8977 195.057 57.1718 194.532 58.5003 194.532H225.804C227.132 194.532 228.407 195.057 229.346 195.992C230.285 196.928 230.813 198.197 230.813 199.52C230.813 200.842 230.285 202.111 229.346 203.047C228.407 203.982 227.132 204.508 225.804 204.508Z" fill="#E6E6E6"/>
<path d="M225.804 237.428H58.5003C57.1718 237.428 55.8977 236.903 54.9583 235.967C54.0189 235.032 53.4912 233.763 53.4912 232.44C53.4912 231.117 54.0189 229.849 54.9583 228.913C55.8977 227.978 57.1718 227.452 58.5003 227.452H225.804C227.132 227.452 228.407 227.978 229.346 228.913C230.285 229.849 230.813 231.117 230.813 232.44C230.813 233.763 230.285 235.032 229.346 235.967C228.407 236.903 227.132 237.428 225.804 237.428Z" fill="#E6E6E6"/>
<path d="M191.608 82.0723H92.6984C87.8815 82.0763 83.263 83.9828 79.8561 87.3735C76.4492 90.7642 74.5321 95.3622 74.5254 100.159V129.817C74.5317 134.615 76.4483 139.214 79.855 142.607C83.2618 145.999 87.8805 147.907 92.6984 147.914H191.608C196.425 147.907 201.042 145.998 204.447 142.605C207.852 139.213 209.767 134.614 209.771 129.817V100.159C209.766 95.3632 207.851 90.7654 204.446 87.3745C201.041 83.9836 196.424 82.0766 191.608 82.0723ZM207.767 129.817C207.767 134.088 206.064 138.183 203.031 141.203C199.999 144.222 195.886 145.918 191.598 145.919H120.596C108.909 145.919 97.7002 141.295 89.436 133.066C81.1718 124.837 76.529 113.675 76.529 102.037V100.159C76.5358 95.8914 78.2419 91.801 81.273 88.7845C84.3042 85.768 88.413 84.0716 92.6984 84.0675H191.608C195.892 84.072 200 85.7688 203.029 88.7855C206.059 91.8022 207.763 95.8924 207.767 100.159V129.817Z" fill="#E6E6E6"/>
<path d="M143.26 125.697C152.666 125.697 160.291 118.104 160.291 108.738C160.291 99.3719 152.666 91.779 143.26 91.779C133.854 91.779 126.229 99.3719 126.229 108.738C126.229 118.104 133.854 125.697 143.26 125.697Z" fill="#E6E6E6"/>
<path d="M182.441 147.914L106.193 147.644L130.237 141.659L133.232 131.813L156.284 131.683L163.186 141.419L180.618 145.919L182.201 146.328L182.441 147.914Z" fill="#E6E6E6"/>
<path d="M133.581 119.566C137.235 116.722 132.24 104.208 138.275 106.879C138.275 106.879 145.651 102.205 147.133 105.276C148.849 108.833 154.952 107.219 158.701 105.964C158.406 105.282 158.197 104.567 158.077 103.834C158.769 104.377 159.502 104.866 160.27 105.296C160.785 105.022 161.24 104.65 161.611 104.201C161.977 103.784 162.206 103.266 162.267 102.715C162.328 102.165 162.218 101.609 161.953 101.123C161.329 100.168 160.042 99.8741 159.284 99.026C159.197 98.9067 159.139 98.7681 159.117 98.622C159.096 98.4759 159.11 98.3267 159.158 98.1871C159.249 97.8459 159.262 97.4891 159.198 97.142C159.134 96.795 158.994 96.4663 158.788 96.1793C158.582 95.8923 158.315 95.6541 158.005 95.4818C157.696 95.3094 157.353 95.207 156.999 95.182C156.857 95.1863 156.716 95.1557 156.588 95.0929C155.952 94.7052 155.365 94.2434 154.838 93.7173C155.717 93.7574 154.642 88.4028 145.933 89.417C143.74 89.3369 142.595 91.745 140.436 92.1256C135.202 89.1474 130.53 93.4436 128.256 97.5502C125.983 101.657 123.522 114.892 133.581 119.566Z" fill="#E6E6E6"/>
<path d="M271.362 14.964H18.173C13.3562 14.968 8.73763 16.8745 5.33069 20.2652C1.92375 23.6559 0.00666567 28.2539 0 33.0504V260.233C0.00626372 265.031 1.92291 269.63 5.32965 273.023C8.73639 276.415 13.3551 278.324 18.173 278.33H271.362C276.179 278.323 280.797 276.414 284.202 273.022C287.607 269.629 289.521 265.03 289.525 260.233V33.0504C289.521 28.2549 287.606 23.6571 284.201 20.2662C280.795 16.8753 276.178 14.9683 271.362 14.964ZM287.522 260.233C287.522 264.504 285.818 268.599 282.786 271.619C279.754 274.638 275.641 276.335 271.352 276.335H132.441C115.312 276.335 98.3503 272.975 82.5249 266.447C66.6994 259.92 52.3201 250.352 40.2079 238.291C28.0956 226.23 18.4877 211.911 11.9326 196.153C5.37748 180.394 2.00363 163.504 2.00364 146.447V33.0504C2.01045 28.7831 3.71651 24.6927 6.74766 21.6761C9.77881 18.6596 13.8876 16.9633 18.173 16.9592H271.362C275.647 16.9637 279.754 18.6605 282.784 21.6772C285.813 24.6939 287.517 28.7841 287.522 33.0504V260.233Z" fill="#E6E6E6"/>
<path d="M535.879 518.693L219.949 519C219.633 518.998 219.331 518.873 219.109 518.65C218.887 518.427 218.762 518.126 218.762 517.812C218.762 517.498 218.887 517.197 219.109 516.974C219.331 516.752 219.633 516.626 219.949 516.624L535.879 516.318C536.195 516.319 536.497 516.445 536.719 516.668C536.941 516.89 537.066 517.192 537.066 517.506C537.066 517.82 536.941 518.121 536.719 518.343C536.497 518.566 536.195 518.692 535.879 518.693Z" fill="#CACACA"/>
</g>
<defs>
<clipPath id="clip0_201_20">
<rect width="539" height="519" fill="white"/>
</clipPath>
</defs>
</svg>
