<svg width="25" height="25" viewBox="0 0 25 25" fill="none" xmlns="http://www.w3.org/2000/svg">
<path d="M21.875 3.125H20.6064C21.4082 4.50586 21.875 6.104 21.875 7.8125C21.875 12.9819 17.6694 17.1875 12.5 17.1875C7.33057 17.1875 3.125 12.9819 3.125 7.8125C3.125 6.104 3.5918 4.50586 4.39355 3.125H3.125C1.40186 3.125 0 4.52686 0 6.25V21.875C0 23.5981 1.40186 25 3.125 25H21.875C23.5981 25 25 23.5981 25 21.875V6.25C25 4.52686 23.5981 3.125 21.875 3.125ZM12.5 15.625C16.8149 15.625 20.3125 12.1274 20.3125 7.8125C20.3125 3.49756 16.8149 0 12.5 0C8.18506 0 4.6875 3.49756 4.6875 7.8125C4.6875 12.1274 8.18506 15.625 12.5 15.625ZM12.4854 8.20605L14.125 4.37988C14.2959 3.98096 14.7568 3.79785 15.1519 3.96924C15.5483 4.13916 15.7319 4.59863 15.5625 4.99463L13.9185 8.83008C14.2446 9.17969 14.4531 9.64111 14.4531 10.1562C14.4531 11.2349 13.5786 12.1094 12.5 12.1094C11.4214 12.1094 10.5469 11.2349 10.5469 10.1562C10.5469 9.08301 11.4141 8.21436 12.4854 8.20605Z" fill="white"/>
</svg>
