<svg width="106" height="106" viewBox="0 0 106 106" fill="none" xmlns="http://www.w3.org/2000/svg">
<path d="M92.75 13.25H87.3713C90.7708 19.1048 92.75 25.881 92.75 33.125C92.75 55.0434 74.9184 72.875 53 72.875C31.0816 72.875 13.25 55.0434 13.25 33.125C13.25 25.881 15.2292 19.1048 18.6287 13.25H13.25C5.94387 13.25 0 19.1939 0 26.5V92.75C0 100.056 5.94387 106 13.25 106H92.75C100.056 106 106 100.056 106 92.75V26.5C106 19.1939 100.056 13.25 92.75 13.25ZM53 66.25C71.2953 66.25 86.125 51.4204 86.125 33.125C86.125 14.8296 71.2953 0 53 0C34.7046 0 19.875 14.8296 19.875 33.125C19.875 51.4204 34.7046 66.25 53 66.25ZM52.9379 34.7937L59.89 18.5707C60.6146 16.8793 62.569 16.1029 64.2439 16.8296C65.925 17.55 66.7034 19.4982 65.985 21.1772L59.0143 37.4395C60.3972 38.9219 61.2812 40.8783 61.2812 43.0625C61.2812 47.6358 57.5733 51.3438 53 51.3438C48.4267 51.3438 44.7188 47.6358 44.7188 43.0625C44.7188 38.512 48.3956 34.8289 52.9379 34.7937Z" fill="black"/>
</svg>
